<svg width="512" height="512" viewBox="0 0 512 512" fill="none" xmlns="http://www.w3.org/2000/svg">
<g clip-path="url(#clip0)">
<path d="M94.7939 381.379L143.959 403.622L118.975 451.642C118.866 451.85 118.918 452.106 119.098 452.257L142.002 471.344C173.85 497.884 214.222 512.501 255.679 512.501C297.136 512.501 337.507 497.885 369.356 471.344L392.26 452.257C392.44 452.106 392.492 451.85 392.383 451.642L367.399 403.622L416.564 381.379C416.743 381.298 416.858 381.12 416.858 380.923V231.338C416.858 162.011 372.864 102.771 311.331 80.0618V47.2726C311.331 47.1266 311.267 46.988 311.156 46.893L256.004 -0.37963C255.817 -0.540123 255.541 -0.540123 255.354 -0.37963L200.202 46.893C200.091 46.988 200.027 47.1266 200.027 47.2726V80.0608C138.494 102.77 94.5 162.01 94.5 231.337V380.923C94.5 381.12 94.615 381.298 94.7939 381.379ZM271.224 164.91C293.672 158.369 310.29 138.044 311.267 113.745C353.146 133.623 382.793 175.22 385.551 223.894H271.224V164.91ZM240.133 164.911V223.895H125.805C128.564 175.22 158.21 133.623 200.09 113.745C201.066 138.044 217.685 158.368 240.133 164.911ZM240.133 326.561V413.006L125.593 361.186V254.988H163.264V293.288C163.264 293.488 163.383 293.669 163.567 293.748L240.133 326.561ZM255.473 454.073C255.604 454.132 255.754 454.132 255.885 454.073L339.027 416.457L353.431 444.141L349.451 447.457C323.179 469.35 289.877 481.407 255.679 481.407C221.481 481.407 188.178 469.35 161.907 447.457L161.587 447.841L161.907 447.457L157.927 444.141L172.331 416.457L255.473 454.073ZM347.79 293.747C347.974 293.668 348.093 293.487 348.093 293.287V254.987H385.765V361.186L271.225 413.005V326.561L347.79 293.747ZM255.679 299.396L194.356 273.115V254.988H317V273.115L255.679 299.396ZM231.12 111.486V61.3432L255.679 40.2926L280.238 61.3432V111.486C280.238 125.028 269.22 136.046 255.679 136.046C242.137 136.046 231.12 125.028 231.12 111.486Z" fill="#1DB256" stroke="#1DB256" stroke-linecap="round" stroke-linejoin="round"/>
</g>
<defs>
<clipPath id="clip0">
<rect width="512" height="512" fill="white"/>
</clipPath>
</defs>
</svg>
