<svg width="68" height="68" viewBox="0 0 68 68" fill="none" xmlns="http://www.w3.org/2000/svg">
<circle cx="34" cy="34" r="34" fill="#1DB256"/>
<path d="M30.4011 50.752C29.6651 51.296 28.7531 51.712 27.6651 52C26.6091 52.256 25.4891 52.384 24.3051 52.384C21.2331 52.384 18.8491 51.6 17.1531 50.032C15.4891 48.464 14.6571 46.16 14.6571 43.12V32.512H10.6731V26.752H14.6571V20.464H22.1451V26.752H28.5771V32.512H22.1451V43.024C22.1451 44.112 22.4171 44.96 22.9611 45.568C23.5371 46.144 24.3371 46.432 25.3611 46.432C26.5451 46.432 27.5531 46.112 28.3851 45.472L30.4011 50.752ZM46.2876 52.384C43.5356 52.384 41.0556 51.824 38.8476 50.704C36.6716 49.552 34.9596 47.968 33.7116 45.952C32.4956 43.936 31.8876 41.648 31.8876 39.088C31.8876 36.528 32.4956 34.24 33.7116 32.224C34.9596 30.208 36.6716 28.64 38.8476 27.52C41.0556 26.368 43.5356 25.792 46.2876 25.792C49.0076 25.792 51.3756 26.368 53.3916 27.52C55.4396 28.64 56.9276 30.256 57.8556 32.368L52.0476 35.488C50.7036 33.12 48.7676 31.936 46.2396 31.936C44.2876 31.936 42.6716 32.576 41.3916 33.856C40.1116 35.136 39.4716 36.88 39.4716 39.088C39.4716 41.296 40.1116 43.04 41.3916 44.32C42.6716 45.6 44.2876 46.24 46.2396 46.24C48.7996 46.24 50.7356 45.056 52.0476 42.688L57.8556 45.856C56.9276 47.904 55.4396 49.504 53.3916 50.656C51.3756 51.808 49.0076 52.384 46.2876 52.384Z" fill="white"/>
</svg>
