<svg width="721" height="721" viewBox="0 0 721 721" fill="none" xmlns="http://www.w3.org/2000/svg">
<path d="M360.5 98C209.391 98 87 218.52 87 367.161C87 486.106 165.358 586.973 274.006 622.536C287.681 625.069 292.695 616.738 292.695 609.593C292.695 603.202 292.467 586.266 292.353 563.828C216.274 580.057 200.229 527.717 200.229 527.717C187.785 496.652 169.802 488.343 169.802 488.343C145.028 471.657 171.717 472 171.717 472C199.181 473.872 213.608 499.733 213.608 499.733C237.995 540.888 277.63 528.996 293.265 522.125C295.726 504.709 302.769 492.863 310.586 486.129C249.846 479.395 186.007 456.25 186.007 353.123C186.007 323.747 196.605 299.734 214.155 280.903C211.078 274.101 201.847 246.733 216.548 209.664C216.548 209.664 239.453 202.451 291.76 237.26C313.64 231.28 336.888 228.312 360.135 228.175C383.383 228.312 406.63 231.28 428.51 237.26C480.475 202.451 503.381 209.664 503.381 209.664C518.082 246.733 508.851 274.101 506.116 280.903C523.552 299.734 534.15 323.747 534.15 353.123C534.15 456.524 470.219 479.281 409.365 485.901C418.938 493.981 427.827 510.484 427.827 535.706C427.827 571.726 427.485 600.669 427.485 609.411C427.485 616.464 432.271 624.887 446.288 622.193C555.711 586.859 634 485.924 634 367.161C634 218.52 511.54 98 360.5 98Z" fill="white"/>
</svg>
