<svg width="243" height="243" viewBox="0 0 243 243" fill="none" xmlns="http://www.w3.org/2000/svg">
<g clip-path="url(#clip0)">
<path d="M0 0V242.667H242.667V0H0ZM81.468 192.754H52.996V93.362H81.467V192.754H81.468ZM67.513 82.028C57.963 82.028 50.194 74.824 50.194 65.97C50.194 57.116 57.964 49.912 67.513 49.912C77.062 49.912 84.832 57.116 84.832 65.97C84.832 74.824 77.062 82.028 67.513 82.028ZM192.473 192.754H163.301V133.808C163.307 133.688 163.733 124.33 158.427 118.74C155.786 115.957 152.148 114.546 147.613 114.546C136.205 114.546 130.443 122.76 128.001 127.735V192.754H99.529V93.362H128V101.759C137.32 94.198 147.787 90.209 158.335 90.209C185.338 90.209 192.473 111.302 192.473 122.455V192.754Z" fill="#1DB256"/>
</g>
<defs>
<clipPath id="clip0">
<rect width="242.667" height="242.667" fill="white"/>
</clipPath>
</defs>
</svg>
