<svg width="244" height="244" viewBox="0 0 244 244" fill="none" xmlns="http://www.w3.org/2000/svg">
<path d="M62.9792 47.4294C51.5676 47.4294 44.1064 54.9228 44.1064 64.7719C44.1064 74.4035 51.3453 82.1107 62.5413 82.1107H62.7579C74.3927 82.1107 81.6335 74.4035 81.6335 64.7719C81.416 54.9228 74.3927 47.4294 62.9792 47.4294Z" fill="white"/>
<path d="M46.0784 95.8143H79.4393V196.182H46.0784V95.8143Z" fill="white"/>
<path d="M161.325 93.4586C143.328 93.4586 131.26 110.37 131.26 110.37V95.8143H97.8979V196.182H131.258V140.133C131.258 137.132 131.475 134.136 132.357 131.991C134.769 125.999 140.257 119.792 149.473 119.792C161.545 119.792 166.373 128.996 166.373 142.488V196.182H199.731V138.633C199.731 107.804 183.272 93.4586 161.325 93.4586Z" fill="white"/>
</svg>
