<svg width="796" height="175" viewBox="0 0 796 175" fill="none" xmlns="http://www.w3.org/2000/svg">
<path d="M146.74 175C139.341 175 133.329 172.685 128.705 168.056C124.235 163.426 122 156.481 122 147.222C122 143.364 122.617 138.349 123.85 132.176L137.722 67.1296H130.092L131.942 57.8704H139.572L146.508 25.9259L180.728 21.2963L172.866 57.8704H186.739L184.889 67.1296H171.017L156.219 136.574C155.603 138.889 155.294 141.358 155.294 143.981C155.294 147.068 155.988 149.306 157.375 150.694C158.917 151.929 161.383 152.546 164.774 152.546C169.244 152.546 173.406 150.694 177.259 146.991C181.113 143.133 183.887 138.194 185.583 132.176H195.294C189.591 148.843 182.269 160.185 173.329 166.204C164.389 172.068 155.526 175 146.74 175Z" fill="#1DB256"/>
<path d="M270.577 0H275.432L289.305 43.75H281.906L268.033 25.2315L231.733 43.75H221.56L270.577 0ZM213.236 175C204.45 175 197.129 171.991 191.271 165.972C185.414 159.954 182.485 150.54 182.485 137.731C182.485 126.312 184.72 114.352 189.19 101.852C193.814 89.1975 200.597 78.5494 209.537 69.9074C218.631 61.1111 229.421 56.713 241.906 56.713C248.226 56.713 252.927 57.7932 256.01 59.9537C259.093 62.1142 260.634 64.9691 260.634 68.5185V70.1389L263.178 57.8704H296.472L279.825 136.574C279.208 138.889 278.9 141.358 278.9 143.981C278.9 150.617 282.06 153.935 288.38 153.935C292.696 153.935 296.395 151.929 299.478 147.917C302.715 143.904 305.258 138.657 307.108 132.176H316.819C311.116 148.843 304.025 160.185 295.547 166.204C287.224 172.068 278.823 175 270.345 175C263.871 175 258.631 173.225 254.623 169.676C250.769 165.972 248.457 160.648 247.687 153.704C243.217 160.031 238.207 165.201 232.658 169.213C227.263 173.071 220.789 175 213.236 175ZM228.265 152.546C232.118 152.546 235.895 150.772 239.594 147.222C243.448 143.519 246.068 138.503 247.455 132.176L258.554 79.8611C258.554 77.8549 257.783 75.9259 256.241 74.0741C254.7 72.0679 252.311 71.0648 249.074 71.0648C242.908 71.0648 237.359 74.6914 232.427 81.9445C227.494 89.0432 223.641 97.6852 220.866 107.87C218.092 117.901 216.704 126.775 216.704 134.491C216.704 142.207 217.783 147.145 219.941 149.306C222.253 151.466 225.028 152.546 228.265 152.546Z" fill="#1DB256"/>
<path d="M340.256 175C328.85 175 319.986 172.068 313.667 166.204C307.347 160.185 304.187 150.849 304.187 138.194C304.187 127.546 306.268 115.818 310.43 103.009C314.746 90.2006 321.528 79.1667 330.776 69.9074C340.179 60.4938 352.048 55.7871 366.383 55.7871C375.631 55.7871 382.182 57.7932 386.036 61.8056C390.043 65.8179 392.047 70.9105 392.047 77.0833C392.047 82.4846 390.891 86.6512 388.579 89.5833C386.267 92.5154 383.338 93.9815 379.793 93.9815C377.173 93.9815 374.475 93.0556 371.701 91.2037C373.55 86.1111 374.475 81.5586 374.475 77.5463C374.475 74.6142 373.936 72.2994 372.857 70.6019C371.778 68.9043 370.159 68.0556 368.001 68.0556C363.377 68.0556 358.753 71.8364 354.129 79.3982C349.504 86.9599 345.728 96.142 342.799 106.944C339.871 117.747 338.406 127.469 338.406 136.111C338.406 143.673 339.716 148.843 342.337 151.62C344.957 154.244 349.196 155.556 355.053 155.556C363.377 155.556 370.468 153.627 376.325 149.769C382.336 145.91 388.887 140.046 395.978 132.176H403.839C386.729 160.725 365.535 175 340.256 175Z" fill="#1DB256"/>
<path d="M479.396 175C469.994 175 463.057 172.531 458.587 167.593C454.271 162.5 452.113 156.25 452.113 148.843C452.113 145.602 452.499 141.975 453.269 137.963C454.04 133.796 454.811 129.784 455.581 125.926C456.506 122.068 457.123 119.599 457.431 118.519C458.664 113.117 459.82 107.793 460.899 102.546C461.978 97.2994 462.518 93.0556 462.518 89.8148C462.518 81.9444 459.743 78.0093 454.194 78.0093C450.187 78.0093 446.641 80.0154 443.559 84.0278C440.476 87.8858 438.009 92.9784 436.16 99.3056L420.437 173.611H387.143L420.669 16.2037L454.888 11.5741L442.402 69.9074C450.109 61.2654 459.127 56.9445 469.454 56.9445C477.315 56.9445 483.558 59.105 488.182 63.4259C492.806 67.7469 495.119 74.3056 495.119 83.1019C495.119 87.5772 494.579 92.5926 493.5 98.1482C492.421 103.549 490.88 110.185 488.876 118.056C487.643 122.84 486.487 127.546 485.408 132.176C484.483 136.651 484.02 140.201 484.02 142.824C484.02 145.911 484.714 148.302 486.101 150C487.489 151.698 489.878 152.546 493.269 152.546C497.893 152.546 501.592 150.926 504.367 147.685C507.142 144.29 509.916 139.12 512.691 132.176H522.401C516.698 149.151 510.07 160.571 502.517 166.435C495.119 172.145 487.411 175 479.396 175Z" fill="#1DB256"/>
<path d="M545.727 175C534.32 175 525.457 172.068 519.137 166.204C512.818 160.185 509.658 150.849 509.658 138.194C509.658 127.546 511.739 115.818 515.9 103.009C520.062 90.2006 526.844 79.1667 536.247 69.9074C545.65 60.4938 557.595 55.7871 572.085 55.7871C589.04 55.7871 597.518 63.1945 597.518 78.0093C597.518 86.6512 595.052 94.5988 590.119 101.852C585.187 109.105 578.636 114.969 570.466 119.444C562.297 123.765 553.588 126.235 544.339 126.852C544.031 131.481 543.877 134.568 543.877 136.111C543.877 143.673 545.187 148.843 547.808 151.62C550.428 154.244 554.667 155.556 560.524 155.556C568.848 155.556 575.938 153.627 581.796 149.769C587.807 145.91 594.358 140.046 601.448 132.176H609.31C592.2 160.725 571.006 175 545.727 175ZM546.189 115.741C551.892 115.432 557.287 113.426 562.374 109.722C567.615 106.019 571.776 101.312 574.859 95.6019C578.096 89.892 579.715 83.8735 579.715 77.5463C579.715 71.2191 577.788 68.0556 573.934 68.0556C568.385 68.0556 562.913 72.9167 557.518 82.6389C552.278 92.3611 548.501 103.395 546.189 115.741Z" fill="#1DB256"/>
<path d="M627.758 175C620.359 175 614.116 173.611 609.03 170.833C603.943 167.901 600.167 164.198 597.7 159.722C595.234 155.093 594.001 150.309 594.001 145.37C594.001 140.278 595.234 135.88 597.7 132.176C600.012 128.318 602.864 125.54 606.255 123.843C612.267 113.04 617.507 102.16 621.977 91.2037C626.448 80.0926 630.686 68.1327 634.694 55.3241L668.913 50.6945C669.684 70.4475 670.994 91.821 672.844 114.815C673.615 124.074 674 130.787 674 134.954C674 144.367 671.611 152.083 666.832 158.102C662.054 164.12 656.12 168.441 649.029 171.065C642.093 173.688 635.002 175 627.758 175ZM620.359 156.713C626.062 156.713 630.841 155.015 634.694 151.62C638.548 148.225 640.474 142.747 640.474 135.185C640.474 130.556 640.012 124.074 639.087 115.741C637.546 98.1481 636.544 86.3426 636.081 80.3241C632.382 92.5154 626.139 107.099 617.353 124.074C620.899 125.926 622.671 128.627 622.671 132.176C622.671 135.108 621.669 137.731 619.665 140.046C617.816 142.361 615.427 143.519 612.498 143.519C609.261 143.519 607.18 142.515 606.255 140.509C606.255 146.065 607.334 150.154 609.492 152.778C611.804 155.401 615.427 156.713 620.359 156.713Z" fill="#1DB256"/>
</svg>
